<svg width="220" height="228" viewBox="0 0 220 228" fill="none" xmlns="http://www.w3.org/2000/svg">
<rect width="24" height="26" transform="matrix(-1 0 0 1 208 88)" fill="#FFDCBC"/>
<rect width="24" height="26" transform="matrix(-1 0 0 1 208 114)" fill="#FFDCBC"/>
<rect width="24" height="26" transform="matrix(-1 0 0 1 220 101)" fill="#FFDCBC"/>
<rect x="109" y="171" width="24" height="24" fill="#FFD030"/>
<rect x="52" y="70" width="115" height="99" rx="42.5" fill="white"/>
<rect x="89" y="31" width="24" height="24" fill="#FFD030"/>
<rect x="93" y="50" width="31" height="24" fill="#FFD030"/>
<rect x="123" y="55" width="24" height="24" fill="#FFD030"/>
<rect x="109" y="153" width="24" height="24" fill="#FFD030"/>
<rect x="85" y="153" width="24" height="24" fill="#FFD030"/>
<rect x="85" y="171" width="24" height="24" fill="#FFD030"/>
<rect x="61" y="171" width="24" height="24" fill="#FFD030"/>
<rect width="24" height="24" transform="matrix(-1 0 0 1 151 171)" fill="#FFD030"/>
<rect x="66" y="148" width="24" height="35" fill="#FFD030"/>
<rect width="24" height="35" transform="matrix(-1 0 0 1 157 147)" fill="#FFD030"/>
<rect width="24" height="24" transform="matrix(-1 0 0 1 151 158)" fill="#FFD030"/>
<rect x="39" y="164" width="27" height="24" fill="#FFD030"/>
<rect width="24" height="31" transform="matrix(-1 0 0 1 173 164)" fill="#FFD030"/>
<rect x="27" y="171" width="24" height="24" fill="#FFD030"/>
<rect width="24" height="24" transform="matrix(-1 0 0 1 185 171)" fill="#FFD030"/>
<rect width="24" height="24" transform="matrix(-1 0 0 1 185 171)" fill="#FFD030"/>
<rect x="49" y="186" width="24" height="24" fill="#FFD030"/>
<rect x="43" y="195" width="29" height="24" fill="#FFD030"/>
<rect width="29" height="24" transform="matrix(-1 0 0 1 177 195)" fill="#FFD030"/>
<rect x="23" y="153" width="24" height="24" fill="#FFD030"/>
<rect x="12" y="140" width="24" height="24" fill="#FFD030"/>
<rect width="24" height="24" transform="matrix(-1 0 0 1 197 154)" fill="#FFD030"/>
<rect width="24" height="30" transform="matrix(-1 0 0 1 197 148)" fill="#FFD030"/>
<rect x="23" y="140" width="24" height="24" fill="#FFD030"/>
<rect width="24" height="24" transform="matrix(-1 0 0 1 208 140)" fill="#FFD030"/>
<rect x="39" y="141" width="24" height="24" fill="#FFD030"/>
<rect width="24" height="24" transform="matrix(-1 0 0 1 173 141)" fill="#FFD030"/>
<rect x="47" y="141" width="24" height="24" fill="#FFD030"/>
<rect width="24" height="24" transform="matrix(-1 0 0 1 171 141)" fill="#FFD030"/>
<rect x="35" y="126" width="24" height="24" fill="#FFD030"/>
<rect width="24" height="24" transform="matrix(-1 0 0 1 185 126)" fill="#FFD030"/>
<rect x="35" y="79" width="24" height="26" fill="#FFD030"/>
<rect width="24" height="26" transform="matrix(-1 0 0 1 185 79)" fill="#FFD030"/>
<rect x="35" y="89" width="19" height="46" fill="#FFD030"/>
<rect width="19" height="46" transform="matrix(-1 0 0 1 185 89)" fill="#FFD030"/>
<rect x="12" y="88" width="24" height="26" fill="#FFDCBC"/>
<rect x="12" y="114" width="24" height="26" fill="#FFDCBC"/>
<rect y="101" width="24" height="26" fill="#FFDCBC"/>
<rect x="49" y="67" width="24" height="24" fill="#FFD030"/>
<rect x="69" y="112" width="20" height="20" fill="#FFE3E7"/>
<rect width="24" height="24" transform="matrix(-1 0 0 1 171 66)" fill="#FFD030"/>
<rect x="71" y="55" width="24" height="24" fill="#FFD030"/>
<rect x="101" width="24" height="31" fill="#FFD030"/>
<rect x="124" y="190" width="24" height="22" fill="#FEECD4"/>
<rect x="72" y="190" width="24" height="22" fill="#FEECD4"/>
<rect x="87" y="178" width="24" height="24" fill="#FEECD4"/>
<rect x="87" y="190" width="24" height="22" fill="#FEECD4"/>
<rect x="109" y="178" width="24" height="24" fill="#FEECD4"/>
<rect x="109" y="190" width="24" height="22" fill="#FEECD4"/>
<rect x="79" y="102" width="20" height="20" fill="#463410"/>
<rect x="132" y="112" width="20" height="20" fill="#FFE3E7"/>
<rect x="122" y="102" width="20" height="20" fill="#463410"/>
<rect x="44" y="204" width="134" height="24" fill="#FFD030"/>
</svg>
